<svg id="svg" xmlns="http://www.w3.org/2000/svg" version="1.1" width="1000" height="1000" viewBox="0 0 1000 1000" style="margin-left:100%;position:absolute;">
  <defs>
    <linearGradient id="redyel" gradientUnits="objectBoundingBox" x1="0" y1="0" x2="0" y2="1">
        <stop offset="0%" stop-color="#ff0000"/>   
        <stop offset="100%" stop-color="#ffff00"/>   
    </linearGradient>
    <linearGradient id="yelgre" gradientUnits="objectBoundingBox" x1="0" y1="0" x2="0" y2="1">
        <stop offset="0%" stop-color="#ffff00"/>   
        <stop offset="100%" stop-color="#00ff00"/>   
    </linearGradient>
    <linearGradient id="grecya" gradientUnits="objectBoundingBox" x1="0" y1="0" x2="0" y2="1">
        <stop offset="0%" stop-color="#00ff00"/>   
        <stop offset="100%" stop-color="#00ffff"/>   
    </linearGradient>
    <linearGradient id="cyablu" gradientUnits="objectBoundingBox" x1="0" y1="0" x2="0" y2="1">
        <stop offset="0%" stop-color="#00ffff"/>   
        <stop offset="100%" stop-color="#0000ff"/>   
    </linearGradient>
    <linearGradient id="blumag" gradientUnits="objectBoundingBox" x1="0" y1="0" x2="0" y2="1">
        <stop offset="0%" stop-color="#0000ff"/>   
        <stop offset="100%" stop-color="#ff00ff"/>   
    </linearGradient>
    <linearGradient id="magred" gradientUnits="objectBoundingBox" x1="0" y1="0" x2="0" y2="1">
        <stop offset="0%" stop-color="#ff00ff"/>   
        <stop offset="100%" stop-color="#ff0000"/>   
    </linearGradient>

    <pattern id="gradient-pattern" width="100" height="1000" patternUnits="userSpaceOnUse">
        <g id="js-gradient">
            <rect x="0" y="0" width="100" height="16.666666667%" fill="url(#redyel)" />
            <rect x="0" y="16.666666667%"  width="100" height="16.666666667%" fill="url(#yelgre)" />
            <rect x="0" y="33.333333334%"  width="100" height="16.666666667%" fill="url(#grecya)" />
            <rect x="0" y="50.000000001%"  width="100" height="16.666666667%" fill="url(#cyablu)" />
            <rect x="0" y="66.666666668%"  width="100" height="16.666666667%" fill="url(#blumag)" />
            <rect x="0" y="83.333333335%"  width="100" height="16.666666667%" fill="url(#magred)" />
        </g>
    </pattern>


    

    <mask id="mask2">
        <path id="js-process"  stroke-dasharray="2000 2000" stroke-dashoffset="2000" vector-effect="non-scaling-stroke" fill="none" stroke="#fff" stroke-width="3" stroke-miterlimit="10" d="M500,190.041
        c-171.186,0-309.959,138.773-309.959,309.959c0,171.186,138.773,309.959,309.959,309.959c171.186,0,309.959-138.773,309.959-309.959
        C809.959,328.814,671.186,190.041,500,190.041"/>
        <text id="js-process-text"  vector-effect="non-scaling-stroke" fill="#fff" transform="translate(500,530)" font-family="HelveticaNeue-UltraLight" font-size="100" style="font-weight: 100;" text-anchor="middle">0%</text>
    </mask>


  </defs>

</svg>




