<?xml version="1.0" encoding="utf-8"?>
<!-- Generator: Adobe Illustrator 16.0.0, SVG Export Plug-In . SVG Version: 6.00 Build 0)  -->
<!DOCTYPE svg PUBLIC "-//W3C//DTD SVG 1.1//EN" "http://www.w3.org/Graphics/SVG/1.1/DTD/svg11.dtd">
<svg version="1.1" id="Layer_1" xmlns="http://www.w3.org/2000/svg" xmlns:xlink="http://www.w3.org/1999/xlink" x="0px" y="0px"
	 width="1000px" height="1000px" viewBox="0 0 1000 1000" enable-background="new 0 0 1000 1000" xml:space="preserve">
<circle fill="none" stroke="#E30613" stroke-miterlimit="10" cx="500.403" cy="133.587" r="6.326"/>
<path fill="none" stroke="#E30613" stroke-miterlimit="10" d="M519.887,156.174h-14.352h-4.642h-14.351
	c-1.514,0-2.742,1.228-2.742,2.742s1.228,2.742,2.742,2.742h14.351h4.642h14.352c1.514,0,2.742-1.228,2.742-2.742
	S521.4,156.174,519.887,156.174z"/>
<circle fill="none" stroke="#E30613" stroke-miterlimit="10" cx="500.403" cy="716.115" r="29.095"/>
<path fill="none" stroke="#E30613" stroke-miterlimit="10" d="M367.819,194.552c-1.542,0-2.792,1.25-2.792,2.792v472.85v-0.105
	c0,1.542,1.25,2.792,2.792,2.792h264.2c1.542,0,2.793-1.25,2.793-2.792v-472.85v0.105c0-1.542-1.251-2.792-2.793-2.792H367.819z"/>
<path fill="none" stroke="#E30613" stroke-miterlimit="10" d="M344.932,191.741h-1.334c-0.737,0-1.335,0.598-1.335,1.335v27.377
	c0,0.737,0.598,1.334,1.335,1.334h1.334v32.467h-1.334c-0.737,0-1.335,0.597-1.335,1.334v19.844c0,0.737,0.598,1.335,1.335,1.335
	h1.334v32.554h-1.334c-0.737,0-1.335,0.598-1.335,1.335V330.5c0,0.737,0.598,1.335,1.335,1.335h1.334v379.283v-0.001
	c0,27.23,22.075,49.305,49.305,49.305h214.194c27.23,0,49.305-22.074,49.306-49.305V150.302c0-27.231-22.075-49.306-49.306-49.306
	h-2.765v-1.334c0-0.737-0.598-1.334-1.335-1.334h-49.593c-0.737,0-1.335,0.598-1.335,1.334v1.334H394.237
	c-27.23,0-49.305,22.075-49.305,49.306v0V191.741z"/>
<circle fill="none" stroke="#E30613" stroke-miterlimit="10" cx="471.111" cy="158.917" r="2.682"/>
</svg>
